<svg width="227" height="57" viewBox="0 0 227 57" fill="none" xmlns="http://www.w3.org/2000/svg">
<path d="M30.7108 16.92C32.0254 16.92 33.4421 17.158 34.9608 17.634C36.5021 18.11 37.7601 18.7107 38.7348 19.436L37.3068 22.462C36.3094 22.0767 35.2101 21.884 34.0088 21.884C30.6541 21.884 28.9768 23.8333 28.9768 27.732C28.9768 29.6133 29.4301 31.0867 30.3368 32.152C31.2661 33.1947 32.3768 33.716 33.6688 33.716C34.9834 33.716 36.2074 33.444 37.3408 32.9L38.8708 35.824C36.5814 37.5013 33.8501 38.34 30.6768 38.34C27.5034 38.34 24.9081 37.4107 22.8908 35.552C20.8961 33.6933 19.8988 31.03 19.8988 27.562C19.8988 24.0713 20.8848 21.4307 22.8568 19.64C24.8288 17.8267 27.4468 16.92 30.7108 16.92ZM41.757 38L40.057 17.396H52.773L56.615 27.494L60.457 17.396H72.017L70.317 38H63.347L62.123 25.726L57.431 38H51.923L47.231 25.726L46.211 38H41.757ZM88.141 26.066C88.889 26.5193 89.5123 27.1653 90.011 28.004C90.5323 28.8427 90.793 29.9647 90.793 31.37C90.793 32.7527 90.351 34.0107 89.467 35.144C87.835 37.2747 85.353 38.34 82.021 38.34C80.5703 38.34 79.131 38.136 77.703 37.728C76.2977 37.2973 75.255 36.8667 74.575 36.436L73.555 35.824L75.017 32.9C76.649 33.6933 78.1223 34.09 79.437 34.09C80.7517 34.09 81.409 33.6707 81.409 32.832C81.409 32.356 81.1483 31.914 80.627 31.506C80.1283 31.0753 79.505 30.6673 78.757 30.282C78.0317 29.8967 77.295 29.4547 76.547 28.956C75.8217 28.4347 75.1983 27.7207 74.677 26.814C74.1783 25.8847 73.929 24.808 73.929 23.584C73.929 21.408 74.7563 19.7533 76.411 18.62C78.0883 17.4867 80.1057 16.92 82.463 16.92C83.8683 16.92 85.183 17.09 86.407 17.43C87.6537 17.77 88.5377 18.11 89.059 18.45L89.875 18.96L88.549 21.85C87.393 21.3513 86.2257 21.102 85.047 21.102C83.891 21.102 83.313 21.544 83.313 22.428C83.313 22.904 83.5623 23.3347 84.061 23.72C84.5823 24.1053 85.2057 24.4793 85.931 24.842C86.679 25.182 87.4157 25.59 88.141 26.066ZM92.6548 29.602V26.27H101.325V29.602H92.6548Z" fill="#00A1DE"/>
<path d="M117.625 26.066C118.373 26.5193 118.997 27.1653 119.495 28.004C120.017 28.8427 120.277 29.9647 120.277 31.37C120.277 32.7527 119.835 34.0107 118.951 35.144C117.319 37.2747 114.837 38.34 111.505 38.34C110.055 38.34 108.615 38.136 107.187 37.728C105.782 37.2973 104.739 36.8667 104.059 36.436L103.039 35.824L104.501 32.9C106.133 33.6933 107.607 34.09 108.921 34.09C110.236 34.09 110.893 33.6707 110.893 32.832C110.893 32.356 110.633 31.914 110.111 31.506C109.613 31.0753 108.989 30.6673 108.241 30.282C107.516 29.8967 106.779 29.4547 106.031 28.956C105.306 28.4347 104.683 27.7207 104.161 26.814C103.663 25.8847 103.413 24.808 103.413 23.584C103.413 21.408 104.241 19.7533 105.895 18.62C107.573 17.4867 109.59 16.92 111.947 16.92C113.353 16.92 114.667 17.09 115.891 17.43C117.138 17.77 118.022 18.11 118.543 18.45L119.359 18.96L118.033 21.85C116.877 21.3513 115.71 21.102 114.531 21.102C113.375 21.102 112.797 21.544 112.797 22.428C112.797 22.904 113.047 23.3347 113.545 23.72C114.067 24.1053 114.69 24.4793 115.415 24.842C116.163 25.182 116.9 25.59 117.625 26.066ZM124.417 36.334C122.785 34.974 121.969 32.8207 121.969 29.874C121.969 26.9273 122.785 24.7853 124.417 23.448C126.072 22.088 128.27 21.408 131.013 21.408C133.756 21.408 135.943 22.088 137.575 23.448C139.23 24.7853 140.057 26.9273 140.057 29.874C140.057 32.8207 139.23 34.974 137.575 36.334C135.943 37.6713 133.756 38.34 131.013 38.34C128.27 38.34 126.072 37.6713 124.417 36.334ZM129.585 26.032C129.313 26.8027 129.177 28.0833 129.177 29.874C129.177 31.6647 129.313 32.9567 129.585 33.75C129.857 34.5207 130.333 34.906 131.013 34.906C131.693 34.906 132.169 34.5207 132.441 33.75C132.713 32.9567 132.849 31.6647 132.849 29.874C132.849 28.0833 132.713 26.8027 132.441 26.032C132.169 25.2387 131.693 24.842 131.013 24.842C130.333 24.842 129.857 25.2387 129.585 26.032ZM157.534 35.62C155.834 37.4333 153.556 38.34 150.7 38.34C147.867 38.34 145.668 37.5807 144.104 36.062C142.54 34.5207 141.758 32.356 141.758 29.568C141.758 26.78 142.597 24.7287 144.274 23.414C145.952 22.0767 148.048 21.408 150.564 21.408C151.63 21.408 152.65 21.51 153.624 21.714C154.622 21.918 155.347 22.1333 155.8 22.36L156.48 22.666L155.732 26.168C154.803 25.896 153.84 25.76 152.842 25.76C151.868 25.76 150.972 26.0773 150.156 26.712C149.363 27.324 148.966 28.276 148.966 29.568C148.966 32.4693 150.088 33.92 152.332 33.92C152.922 33.92 153.488 33.852 154.032 33.716C154.576 33.5573 154.973 33.3987 155.222 33.24L155.596 33.036L157.534 35.62ZM166.655 22.36L167.233 22.156L166.077 38H159.651L158.563 22.156C159.855 22.6773 161.226 22.938 162.677 22.938C164.15 22.938 165.476 22.7453 166.655 22.36ZM162.881 21.442C161.748 21.442 160.796 21.102 160.025 20.422C159.254 19.742 158.869 18.858 158.869 17.77C158.869 16.6593 159.243 15.7753 159.991 15.118C160.762 14.438 161.714 14.098 162.847 14.098C164.003 14.098 164.966 14.438 165.737 15.118C166.508 15.798 166.893 16.682 166.893 17.77C166.893 18.858 166.508 19.742 165.737 20.422C164.966 21.102 164.014 21.442 162.881 21.442ZM175.102 38.34C173.356 38.34 171.917 37.83 170.784 36.81C169.673 35.79 169.118 34.3507 169.118 32.492C169.118 30.6107 169.752 29.2507 171.022 28.412C172.291 27.5507 173.821 27.12 175.612 27.12C177.402 27.12 178.955 27.4033 180.27 27.97C179.975 26.0887 178.785 25.148 176.7 25.148C175.748 25.148 174.569 25.3407 173.164 25.726L172.314 22.666C174.354 21.8273 176.428 21.408 178.536 21.408C184.61 21.408 187.648 23.992 187.648 29.16C187.648 30.928 187.444 33.376 187.036 36.504L186.866 38H181.256L181.052 36.13C179.51 37.6033 177.527 38.34 175.102 38.34ZM178.162 34.124C179.182 34.124 180.054 33.8407 180.78 33.274L180.576 31.03C180.009 30.6447 179.374 30.452 178.672 30.452C177.992 30.452 177.425 30.622 176.972 30.962C176.541 31.302 176.326 31.7213 176.326 32.22C176.326 32.7187 176.496 33.1607 176.836 33.546C177.176 33.9313 177.618 34.124 178.162 34.124ZM197.766 15.934L196.848 38H190.592L189.674 15.934H197.766Z" fill="#00B5EB"/>
<path d="M208.063 7.728C208.82 7.29067 209.375 7.28 209.727 7.696C209.108 10.96 207.764 13.728 205.695 16C205.321 16 204.975 15.936 204.655 15.808C204.345 15.6693 204.159 15.4773 204.095 15.232C204.287 13.9093 204.383 12.9067 204.383 12.224C204.393 11.5413 204.287 10.7627 204.063 9.888L202.735 8.24C202.799 7.952 202.959 7.728 203.215 7.568C203.471 7.408 203.775 7.33867 204.127 7.36C205.236 8.864 205.647 11.36 205.359 14.848L205.487 14.928C207.055 12.9547 208.041 11.1467 208.447 9.504L208.063 7.728ZM210.502 6.592C210.864 5.84533 211.35 5.24267 211.958 4.784C212.576 4.32533 213.259 4.096 214.006 4.096C214.763 4.096 215.488 4.43733 216.182 5.12C216.886 5.792 217.232 6.55467 217.222 7.408C217.211 7.728 217.088 8.00533 216.854 8.24C216.63 8.47467 216.235 8.736 215.67 9.024L213.83 9.952C214.47 10.1227 215.024 10.32 215.494 10.544C215.963 10.7573 216.363 11.0613 216.694 11.456C217.035 11.84 217.184 12.2773 217.142 12.768C217.056 13.6213 216.368 14.3253 215.078 14.88C213.798 15.424 212.144 15.808 210.118 16.032C209.798 15.7973 209.686 15.5413 209.782 15.264C211.446 14.9653 212.742 14.656 213.67 14.336C214.608 14.0053 215.43 13.552 216.134 12.976C215.92 12.0373 214.758 11.1947 212.646 10.448L212.854 9.76L216.054 7.632C216 6.98133 215.728 6.42133 215.238 5.952C214.747 5.48267 214.267 5.248 213.798 5.248C213.019 5.248 212.336 5.59467 211.75 6.288L212.39 7.552C212.272 7.75467 212.054 7.88267 211.734 7.936C211.254 7.54133 210.843 7.09333 210.502 6.592Z" fill="#606060"/>
</svg>
